# xmcd
#
# Track frame offsets: 
#        150
#        13213
#        25695
#        36543
#        50498
#        67613
#        78618
#        90998
#        103535
#        117320
#        130283
#        146195
#        168157
#        230380
#
# Disc length: 3990 seconds
#
# Revision: 0
# Processed by: cddbd v1.5.2PL0 Copyright (c) Steve Scherf et al.
# Submitted via: ExactAudioCopy v0.95b3
#
DISCID=b40f940e
DTITLE=The Rascals  - Freedom Suite - The Complete Atlantic Discograph
DTITLE=y (1965-1971) - Disc 06
DYEAR=1900
DGENRE=
TTITLE0=America the Beautiful
TTITLE1=Me and My Friends
TTITLE2=Any Dance'll Do
TTITLE3=Look Around
TTITLE4=A Ray of Hope
TTITLE5=Island of Love
TTITLE6=Of Course
TTITLE7=Love Was So Easy to Give
TTITLE8=People Got to Be Free
TTITLE9=Baby I'm Blue
TTITLE10=Heaven
TTITLE11=Adrian's Birthday
TTITLE12=Boom
TTITLE13=Cute
EXTD=
EXTT0=
EXTT1=
EXTT2=
EXTT3=
EXTT4=
EXTT5=
EXTT6=
EXTT7=
EXTT8=
EXTT9=
EXTT10=
EXTT11=
EXTT12=
EXTT13=
PLAYORDER=
